HIERARCHY
ROOT Hips
{
	OFFSET 0.000000 0.000000 0.000000
	CHANNELS 6 Xposition Yposition Zposition Zrotation Xrotation Yrotation
	JOINT Spine
	{
		OFFSET 0.000000 -0.000000 2.308592
		CHANNELS 6 Xposition Yposition Zposition Zrotation Xrotation Yrotation
		JOINT Spine1
		{
			OFFSET 0.000000 -0.000001 6.299947
			CHANNELS 6 Xposition Yposition Zposition Zrotation Xrotation Yrotation
			JOINT Neck
			{
				OFFSET 0.000000 -0.000001 6.863018
				CHANNELS 6 Xposition Yposition Zposition Zrotation Xrotation Yrotation
				JOINT Head
				{
					OFFSET 0.000000 -0.563072 4.363802
					CHANNELS 6 Xposition Yposition Zposition Zrotation Xrotation Yrotation
					End Site
					{
						OFFSET 0.000000 -0.000001 5.630712
					}
				}
			}
			JOINT LeftShoulder
			{
				OFFSET 1.133878 0.148838 5.541535
				CHANNELS 6 Xposition Yposition Zposition Zrotation Xrotation Yrotation
				JOINT LeftArm
				{
					OFFSET 4.045994 0.000000 0.000000
					CHANNELS 6 Xposition Yposition Zposition Zrotation Xrotation Yrotation
					JOINT LeftForeArm
					{
						OFFSET 7.933552 0.000000 0.000000
						CHANNELS 6 Xposition Yposition Zposition Zrotation Xrotation Yrotation
						JOINT LeftHand
						{
							OFFSET 7.373209 0.000000 0.000000
							CHANNELS 6 Xposition Yposition Zposition Zrotation Xrotation Yrotation
							End Site
							{
								OFFSET 4.223034 0.000000 0.000000
							}
						}
					}
				}
			}
			JOINT RightShoulder
			{
				OFFSET -1.118234 0.148838 5.541535
				CHANNELS 6 Xposition Yposition Zposition Zrotation Xrotation Yrotation
				JOINT RightArm
				{
					OFFSET -4.045993 0.000000 0.000000
					CHANNELS 6 Xposition Yposition Zposition Zrotation Xrotation Yrotation
					JOINT RightForeArm
					{
						OFFSET -7.933553 0.000000 0.000000
						CHANNELS 6 Xposition Yposition Zposition Zrotation Xrotation Yrotation
						JOINT RightHand
						{
							OFFSET -7.373209 0.000000 0.000000
							CHANNELS 6 Xposition Yposition Zposition Zrotation Xrotation Yrotation
							End Site
							{
								OFFSET -4.223034 0.000000 0.000000
							}
						}
					}
				}
			}
		}
	}
	JOINT LeftUpLeg
	{
		OFFSET 2.815356 0.000000 0.000000
		CHANNELS 6 Xposition Yposition Zposition Zrotation Xrotation Yrotation
		JOINT LeftLeg
		{
			OFFSET 0.000000 0.000002 -11.840408
			CHANNELS 6 Xposition Yposition Zposition Zrotation Xrotation Yrotation
			JOINT LeftFoot
			{
				OFFSET 0.000000 0.000002 -12.413343
				CHANNELS 6 Xposition Yposition Zposition Zrotation Xrotation Yrotation
				JOINT LeftToeBase
				{
					OFFSET 0.000000 -4.223034 -1.829982
					CHANNELS 6 Xposition Yposition Zposition Zrotation Xrotation Yrotation
					End Site
					{
						OFFSET 0.000000 -1.126143 0.000000
					}
				}
			}
		}
	}
	JOINT RightUpLeg
	{
		OFFSET -2.815356 0.000000 0.000000
		CHANNELS 6 Xposition Yposition Zposition Zrotation Xrotation Yrotation
		JOINT RightLeg
		{
			OFFSET 0.000000 0.000002 -11.840408
			CHANNELS 6 Xposition Yposition Zposition Zrotation Xrotation Yrotation
			JOINT RightFoot
			{
				OFFSET 0.000000 0.000002 -12.413343
				CHANNELS 6 Xposition Yposition Zposition Zrotation Xrotation Yrotation
				JOINT RightToeBase
				{
					OFFSET 0.000000 -4.223034 -1.829982
					CHANNELS 6 Xposition Yposition Zposition Zrotation Xrotation Yrotation
					End Site
					{
						OFFSET 0.000000 -1.126143 0.000000
					}
				}
			}
		}
	}
}
MOTION
Frames: 4
Frame Time: 0.041667
1.963207 0.228598 24.801977 1.173671 3.666732 -0.807124 0.000000 -0.000000 2.308592 -1.847647 -18.301598 1.405340 -0.000000 -0.000003 6.299948 0.089737 18.376771 -4.911330 -0.000000 -0.000001 6.863019 5.272013 9.340851 -6.605152 0.000001 -0.563071 4.363806 6.102323 6.234609 5.064290 1.133878 0.148837 5.541541 -0.029521 -8.784563 -20.891071 4.045997 0.000000 0.000003 -10.647318 -2.311624 14.178438 7.933552 -0.000000 -0.000003 -9.479159 -8.495363 -6.457837 7.373213 -0.000002 0.000004 -0.717916 -9.070248 7.188579 -1.118235 0.148837 5.541537 -9.378211 -5.306543 17.114528 -4.045994 -0.000001 -0.000003 24.952496 26.723916 -9.875352 -7.933548 -0.000002 -0.000002 73.866010 38.811327 44.489438 -7.373211 0.000001 0.000003 0.558090 5.926860 34.414294 2.815356 -0.000000 -0.000001 -1.840468 -6.981017 2.265687 -0.000000 0.000002 -11.840407 1.892999 13.521550 -1.381336 -0.000000 0.000001 -12.413342 21.597673 -6.174147 -0.554624 -0.000001 -4.223034 -1.829982 -0.000001 0.000001 0.000001 -2.815356 -0.000000 0.000001 0.775960 -5.844595 -1.143924 0.000000 0.000002 -11.840407 -0.759460 12.801838 -1.718270 -0.000000 0.000002 -12.413344 -21.609684 -11.746231 -3.434375 0.000000 -4.223034 -1.829982 -0.000001 -0.000001 -0.000001 
1.971669 0.233260 24.803453 1.178011 3.740224 -0.831998 -0.000000 -0.000000 2.308590 -1.845118 -18.272247 1.407582 0.000000 -0.000002 6.299948 0.083549 18.292092 -4.890130 0.000000 -0.000001 6.863015 5.288404 9.301896 -6.592268 -0.000000 -0.563074 4.363806 6.121634 6.223247 5.064262 1.133878 0.148837 5.541534 0.000631 -8.769754 -20.866563 4.045994 -0.000000 -0.000005 -10.651701 -2.437838 14.183762 7.933555 -0.000000 0.000003 -9.473699 -8.444765 -6.427880 7.373209 -0.000000 0.000005 -0.718192 -9.017013 7.196827 -1.118235 0.148838 5.541536 -9.345516 -5.292752 17.140361 -4.045993 -0.000000 -0.000002 24.907342 26.773788 -9.923799 -7.933548 -0.000003 -0.000003 73.868428 38.846786 44.595121 -7.373209 0.000004 0.000003 0.516386 5.855656 34.416183 2.815356 0.000000 -0.000002 -1.826027 -7.566439 2.288691 0.000000 0.000002 -11.840408 1.602105 14.514475 -1.266243 -0.000000 0.000001 -12.413343 21.905878 -6.489523 -0.503469 -0.000000 -4.223034 -1.829982 -0.000002 0.000002 0.000001 -2.815356 0.000000 -0.000002 0.793063 -5.936825 -1.049029 0.000000 0.000002 -11.840409 -0.736735 12.826175 -1.815644 -0.000000 0.000002 -12.413342 -21.623747 -11.758551 -3.418324 -0.000000 -4.223034 -1.829982 0.000002 -0.000000 0.000001 
1.981416 0.239192 24.805386 1.198488 3.814530 -0.857657 -0.000000 -0.000001 2.308593 -1.853329 -18.220088 1.408539 0.000000 -0.000001 6.299948 0.072852 18.185454 -4.868223 -0.000000 -0.000001 6.863015 5.299134 9.241393 -6.559156 -0.000001 -0.563071 4.363795 6.133125 6.236980 5.039939 1.133879 0.148838 5.541532 0.019820 -8.754151 -20.850582 4.045993 0.000001 -0.000002 -10.647688 -2.456207 14.207600 7.933556 -0.000000 -0.000001 -9.499442 -8.457287 -6.430993 7.373216 0.000002 -0.000002 -0.712839 -9.030795 7.182730 -1.118235 0.148838 5.541531 -9.348222 -5.301896 17.151474 -4.045992 -0.000001 -0.000012 24.894984 26.810898 -9.945104 -7.933549 -0.000002 0.000002 73.857151 38.891015 44.678337 -7.373207 0.000000 -0.000000 0.494150 5.832911 34.380102 2.815356 -0.000000 0.000000 -1.776933 -8.212226 2.320679 -0.000000 0.000002 -11.840408 1.367216 15.629915 -1.173526 0.000001 0.000001 -12.413343 22.048952 -6.949745 -0.618631 -0.000000 -4.223034 -1.829982 -0.000005 -0.000001 -0.000000 -2.815356 -0.000000 0.000002 0.811878 -6.032925 -0.949052 -0.000000 0.000002 -11.840411 -0.758925 12.844766 -1.911856 -0.000001 0.000002 -12.413342 -21.628665 -11.753605 -3.419706 -0.000000 -4.223034 -1.829982 -0.000000 0.000001 -0.000000 
1.993113 0.245670 24.807432 1.248936 3.885144 -0.884641 0.000000 -0.000001 2.308595 -1.884037 -18.160966 1.381479 0.000000 -0.000002 6.299948 0.049312 18.078893 -4.802020 -0.000000 -0.000002 6.863023 5.308307 9.188281 -6.540247 0.000000 -0.563074 4.363800 6.145261 6.215324 5.029123 1.133879 0.148837 5.541535 0.051622 -8.720300 -20.851009 4.045996 0.000000 -0.000001 -10.661570 -2.504052 14.230881 7.933556 -0.000000 -0.000001 -9.504001 -8.469719 -6.434646 7.373210 0.000001 0.000004 -0.667247 -9.041063 7.206357 -1.118235 0.148838 5.541544 -9.361451 -5.277566 17.148744 -4.045995 -0.000001 -0.000001 24.852432 26.697526 -9.925084 -7.933548 -0.000003 -0.000001 74.433407 38.424691 44.391291 -7.373210 0.000002 -0.000001 4.027959 6.136426 32.780072 2.815356 -0.000000 0.000003 -1.830830 -8.920417 2.344478 -0.000000 0.000002 -11.840408 0.986415 16.879421 -1.004967 0.000001 0.000002 -12.413342 22.461328 -7.563323 -0.506779 0.000000 -4.223034 -1.829982 0.000000 0.000001 -0.000001 -2.815356 -0.000000 0.000003 0.830541 -6.127320 -0.840834 0.000000 0.000002 -11.840405 -1.177498 12.867646 -1.925632 -0.000000 0.000002 -12.413344 -21.270801 -11.738821 -3.394128 -0.000000 -4.223034 -1.829982 -0.000001 0.000000 0.000000 
